<svg xmlns="http://www.w3.org/2000/svg" width="1000" height="1000" viewBox="0 0 1000 1000" role="img" aria-label="Jugo verde">
  <defs>
    <radialGradient id="g" cx="50%" cy="38%" r="72%">
      <stop offset="0%" stop-color="#E7EDE7"/>
      <stop offset="100%" stop-color="#2A5641" stop-opacity="0.14"/>
    </radialGradient>
    <filter id="grain"><feTurbulence type="fractalNoise" baseFrequency="0.9" numOctaves="2"/><feColorMatrix type="saturate" values="0"/></filter>
    <clipPath id="bowl"><circle cx="445.9" cy="489.6" r="345.7"/></clipPath>
  </defs>
  <rect width="1000" height="1000" fill="#E7EDE7"/>
  <rect width="1000" height="1000" fill="url(#g)"/>
  <circle cx="445.9" cy="489.6" r="387.2" fill="#2A5641" opacity="0.07"/>
  <circle cx="445.9" cy="489.6" r="345.7" fill="#FFFFFF" opacity="0.55"/>
  <g clip-path="url(#bowl)"><circle cx="670.5" cy="364.9" r="49.1" fill="#4CAF6D" opacity="0.57"/><circle cx="536.9" cy="610.8" r="44.0" fill="#4CAF6D" opacity="0.37"/><circle cx="598.5" cy="610.7" r="58.1" fill="#4CAF6D" opacity="0.75"/><circle cx="499.5" cy="748.5" r="58.1" fill="#4CAF6D" opacity="0.39"/><circle cx="430.0" cy="240.9" r="39.3" fill="#4CAF6D" opacity="0.40"/><circle cx="514.1" cy="268.9" r="49.4" fill="#F5C542" opacity="0.72"/><circle cx="488.0" cy="441.0" r="30.6" fill="#4CAF6D" opacity="0.44"/><circle cx="682.0" cy="617.9" r="37.5" fill="#F5C542" opacity="0.44"/><circle cx="389.0" cy="513.2" r="40.1" fill="#4CAF6D" opacity="0.72"/><circle cx="213.0" cy="608.7" r="48.7" fill="#4CAF6D" opacity="0.41"/><circle cx="382.9" cy="720.4" r="50.2" fill="#4CAF6D" opacity="0.40"/><circle cx="301.3" cy="615.8" r="30.6" fill="#4CAF6D" opacity="0.59"/><circle cx="308.1" cy="365.0" r="48.1" fill="#4CAF6D" opacity="0.40"/><circle cx="570.1" cy="686.6" r="50.3" fill="#4CAF6D" opacity="0.79"/><circle cx="418.2" cy="373.1" r="40.1" fill="#4CAF6D" opacity="0.39"/><circle cx="697.1" cy="565.8" r="33.3" fill="#4CAF6D" opacity="0.39"/><circle cx="478.8" cy="512.2" r="31.4" fill="#4CAF6D" opacity="0.40"/><circle cx="698.0" cy="584.8" r="48.0" fill="#4CAF6D" opacity="0.43"/></g>
  <circle cx="445.9" cy="489.6" r="345.7" fill="none" stroke="#2A5641" stroke-opacity="0.16" stroke-width="6.0"/>
  <rect width="1000" height="1000" filter="url(#grain)" opacity="0.05"/>
  <text x="50" y="955" font-family="Helvetica, Arial, sans-serif" font-size="32" letter-spacing="4.0" fill="#2A5641" opacity="0.4">JUGO VERDE · 1000×1000</text>
</svg>
