<svg xmlns="http://www.w3.org/2000/svg" width="1000" height="1000" viewBox="0 0 1000 1000" role="img" aria-label="Mediterraneo">
  <defs>
    <radialGradient id="g" cx="50%" cy="38%" r="72%">
      <stop offset="0%" stop-color="#E7EDE7"/>
      <stop offset="100%" stop-color="#2A5641" stop-opacity="0.14"/>
    </radialGradient>
    <filter id="grain"><feTurbulence type="fractalNoise" baseFrequency="0.9" numOctaves="2"/><feColorMatrix type="saturate" values="0"/></filter>
    <clipPath id="bowl"><circle cx="434.8" cy="498.4" r="322.7"/></clipPath>
  </defs>
  <rect width="1000" height="1000" fill="#E7EDE7"/>
  <rect width="1000" height="1000" fill="url(#g)"/>
  <circle cx="434.8" cy="498.4" r="361.4" fill="#2A5641" opacity="0.07"/>
  <circle cx="434.8" cy="498.4" r="322.7" fill="#FFFFFF" opacity="0.55"/>
  <g clip-path="url(#bowl)"><circle cx="560.6" cy="385.8" r="41.1" fill="#4CAF6D" opacity="0.60"/><circle cx="247.0" cy="346.4" r="46.5" fill="#4CAF6D" opacity="0.45"/><circle cx="410.4" cy="728.5" r="47.6" fill="#F5C542" opacity="0.50"/><circle cx="543.6" cy="649.0" r="30.8" fill="#4CAF6D" opacity="0.74"/><circle cx="353.9" cy="506.9" r="47.3" fill="#4CAF6D" opacity="0.36"/><circle cx="452.4" cy="309.6" r="26.1" fill="#4CAF6D" opacity="0.67"/><circle cx="652.7" cy="554.2" r="41.9" fill="#4CAF6D" opacity="0.54"/><circle cx="527.1" cy="700.2" r="50.1" fill="#4CAF6D" opacity="0.49"/><circle cx="303.9" cy="649.0" r="41.6" fill="#4CAF6D" opacity="0.38"/><circle cx="387.5" cy="426.0" r="35.4" fill="#4CAF6D" opacity="0.80"/><circle cx="342.7" cy="358.6" r="54.2" fill="#4CAF6D" opacity="0.47"/><circle cx="435.8" cy="434.7" r="28.7" fill="#4CAF6D" opacity="0.43"/><circle cx="284.5" cy="481.7" r="53.4" fill="#F5C542" opacity="0.76"/><circle cx="622.9" cy="336.1" r="31.9" fill="#F5C542" opacity="0.41"/><circle cx="301.0" cy="379.8" r="30.9" fill="#4CAF6D" opacity="0.78"/><circle cx="611.1" cy="626.2" r="28.9" fill="#4CAF6D" opacity="0.59"/><circle cx="284.5" cy="571.2" r="40.8" fill="#F5C542" opacity="0.52"/><circle cx="630.2" cy="358.3" r="40.8" fill="#4CAF6D" opacity="0.74"/><circle cx="455.3" cy="431.9" r="49.7" fill="#4CAF6D" opacity="0.40"/><circle cx="451.2" cy="517.2" r="35.2" fill="#4CAF6D" opacity="0.63"/><circle cx="684.1" cy="483.8" r="23.4" fill="#4CAF6D" opacity="0.38"/><circle cx="531.0" cy="651.1" r="29.3" fill="#4CAF6D" opacity="0.57"/><circle cx="263.8" cy="449.3" r="33.1" fill="#4CAF6D" opacity="0.50"/></g>
  <circle cx="434.8" cy="498.4" r="322.7" fill="none" stroke="#2A5641" stroke-opacity="0.16" stroke-width="6.0"/>
  <rect width="1000" height="1000" filter="url(#grain)" opacity="0.05"/>
  <text x="50" y="955" font-family="Helvetica, Arial, sans-serif" font-size="32" letter-spacing="4.0" fill="#2A5641" opacity="0.4">MEDITERRANEO · 1000×1000</text>
</svg>
