<svg xmlns="http://www.w3.org/2000/svg" width="1000" height="1000" viewBox="0 0 1000 1000" role="img" aria-label="Wrap cesar">
  <defs>
    <radialGradient id="g" cx="50%" cy="38%" r="72%">
      <stop offset="0%" stop-color="#EDEFE6"/>
      <stop offset="100%" stop-color="#1E3D2F" stop-opacity="0.14"/>
    </radialGradient>
    <filter id="grain"><feTurbulence type="fractalNoise" baseFrequency="0.9" numOctaves="2"/><feColorMatrix type="saturate" values="0"/></filter>
    <clipPath id="bowl"><circle cx="484.3" cy="452.5" r="312.4"/></clipPath>
  </defs>
  <rect width="1000" height="1000" fill="#EDEFE6"/>
  <rect width="1000" height="1000" fill="url(#g)"/>
  <circle cx="484.3" cy="452.5" r="349.9" fill="#1E3D2F" opacity="0.07"/>
  <circle cx="484.3" cy="452.5" r="312.4" fill="#FFFFFF" opacity="0.55"/>
  <g clip-path="url(#bowl)"><circle cx="488.3" cy="606.8" r="31.4" fill="#4CAF6D" opacity="0.59"/><circle cx="408.2" cy="565.0" r="47.5" fill="#4CAF6D" opacity="0.59"/><circle cx="690.2" cy="581.2" r="53.1" fill="#F5C542" opacity="0.46"/><circle cx="661.6" cy="333.6" r="46.7" fill="#4CAF6D" opacity="0.72"/><circle cx="545.2" cy="576.3" r="33.8" fill="#4CAF6D" opacity="0.49"/><circle cx="367.3" cy="424.0" r="52.6" fill="#4CAF6D" opacity="0.38"/><circle cx="512.1" cy="628.6" r="42.1" fill="#4CAF6D" opacity="0.61"/><circle cx="260.5" cy="475.0" r="26.6" fill="#4CAF6D" opacity="0.55"/><circle cx="320.8" cy="329.1" r="42.4" fill="#4CAF6D" opacity="0.56"/><circle cx="577.9" cy="337.8" r="43.0" fill="#F5C542" opacity="0.57"/><circle cx="442.7" cy="378.8" r="38.0" fill="#4CAF6D" opacity="0.53"/><circle cx="433.8" cy="262.1" r="45.0" fill="#4CAF6D" opacity="0.47"/><circle cx="414.2" cy="617.3" r="52.4" fill="#4CAF6D" opacity="0.43"/><circle cx="420.6" cy="467.2" r="33.2" fill="#F5C542" opacity="0.74"/></g>
  <circle cx="484.3" cy="452.5" r="312.4" fill="none" stroke="#1E3D2F" stroke-opacity="0.16" stroke-width="6.0"/>
  <rect width="1000" height="1000" filter="url(#grain)" opacity="0.05"/>
  <text x="50" y="955" font-family="Helvetica, Arial, sans-serif" font-size="32" letter-spacing="4.0" fill="#1E3D2F" opacity="0.4">WRAP CESAR · 1000×1000</text>
</svg>
